<svg xmlns:xlink="http://www.w3.org/1999/xlink" xmlns="http://www.w3.org/2000/svg" viewBox="0 0 24 24" aria-hidden="true" class="r-4qtqp9 r-yyyyoo r-dnmrzs r-bnwqim r-lrvibr r-m6rgpd r-1ion2gp r-10ptun7 r-1janqcz" width="24"  height="24" ><g fill="#B6B9BC"><rect fill="none" height="14" rx="3" stroke="#B6B9BC" stroke-width="2px" transform="rotate(-8 2.094 8.042)" width="14" x="2.094" y="8.042"></rect><circle cx="12.128" cy="11.176" fill="#B6B9BC" r="1.5" transform="rotate(-8 12.128 11.176)"></circle><path d="M2.929 13.984c4.375-.615 8.42 2.433 9.035 6.809" stroke="#B6B9BC" stroke-width="2px" fill="#B6B9BC"></path><path d="M10.896 1.53c.551.031 1.223.127 2.038.241l4.358.613c.815.114 1.487.208 2.026.329.55.124 1.048.293 1.494.605l.252.192c.567.467.996 1.084 1.236 1.783l.06.193c.123.454.14.918.11 1.41-.032.552-.127 1.223-.242 2.039l-.612 4.357c-.115.815-.208 1.487-.33 2.025-.107.482-.25.924-.494 1.326l-.11.17c-.051.072-.105.141-.16.21l-.725-5.163.45-3.204c.12-.848.201-1.424.227-1.875.02-.329.005-.541-.027-.697l-.038-.14c-.12-.349-.335-.657-.618-.891l-.126-.096c-.144-.1-.358-.197-.786-.293-.44-.099-1.018-.18-1.866-.3l-4.357-.612c-.848-.12-1.424-.2-1.875-.226-.44-.025-.671.008-.837.065-.26.09-.498.232-.7.416l-2.446.344c.116-.42.273-.809.521-1.163.484-.692 1.175-1.214 1.974-1.489.515-.177 1.04-.202 1.603-.17z" fill="#B6B9BC"></path></g></svg>