<svg xmlns:xlink="http://www.w3.org/1999/xlink" xmlns="http://www.w3.org/2000/svg" viewBox="0 0 24 24" aria-hidden="true" class="r-4qtqp9 r-yyyyoo r-dnmrzs r-bnwqim r-lrvibr r-m6rgpd r-1ion2gp r-10ptun7 r-1janqcz" width="24"  height="24" ><g fill="#B6B9BC"><path d="M1.998 5.5c0-1.38 1.119-2.5 2.5-2.5h15c1.381 0 2.5 1.12 2.5 2.5v13c0 1.38-1.119 2.5-2.5 2.5h-15c-1.381 0-2.5-1.12-2.5-2.5v-13zm2.5-.5c-.276 0-.5.22-.5.5v13c0 .28.224.5.5.5h15c.276 0 .5-.22.5-.5v-13c0-.28-.224-.5-.5-.5h-15zM6 7h6v6H6V7zm2 2v2h2V9H8zm10 0h-4V7h4v2zm0 4h-4v-2h4v2zm-.002 4h-12v-2h12v2z" fill="#B6B9BC"></path></g></svg>