<svg xmlns:xlink="http://www.w3.org/1999/xlink" xmlns="http://www.w3.org/2000/svg" viewBox="0 0 20 20" aria-hidden="true" class="r-4qtqp9 r-yyyyoo r-dnmrzs r-bnwqim r-lrvibr r-m6rgpd r-1gs4q39 r-1hjwoze r-12ym1je r-1nao33i r-10ln0vt" width="20"  height="20" ><g fill="#E7E9EA"><mask fill="#E7E9EA" id="19-a"><ellipse cx="8.334" cy="8.541" rx="1.042" ry="1.458" fill="#E7E9EA"></ellipse></mask><ellipse cx="8.334" cy="8.541" fill="#E7E9EA" rx="1.042" ry="1.458"></ellipse><path d="M9.375 8.541H8.042c0 .157-.047.244-.056.257-.003.004.016-.026.074-.06.062-.037.157-.071.274-.071v2.666c.83 0 1.455-.473 1.82-.986.369-.514.554-1.157.554-1.806H9.375zM8.334 10V8.667c.116 0 .211.034.273.071.058.034.078.064.075.06-.01-.013-.057-.1-.057-.257H5.959c0 .649.186 1.292.553 1.806.366.513.992.986 1.822.986V10zM7.292 8.54h1.333c0-.157.047-.243.057-.256.003-.004-.017.026-.075.06-.062.036-.157.071-.273.071V5.75c-.83 0-1.456.473-1.822.985-.367.515-.553 1.158-.553 1.806h1.333zm1.042-1.458v1.333c-.117 0-.212-.035-.274-.071-.058-.034-.077-.064-.074-.06.009.013.056.1.056.256h2.666c0-.648-.185-1.29-.553-1.806-.366-.512-.991-.985-1.821-.985v1.333z" fill="#E7E9EA" mask="url(#19-a)"></path><mask fill="#E7E9EA" id="19-b"><ellipse cx="11.667" cy="8.541" rx="1.042" ry="1.458" fill="#E7E9EA"></ellipse></mask><ellipse cx="11.667" cy="8.541" fill="#E7E9EA" rx="1.042" ry="1.458"></ellipse><path d="M12.708 8.541h-1.333c0 .157-.047.244-.056.257-.003.004.016-.026.074-.06.062-.037.157-.071.274-.071v2.666c.83 0 1.455-.473 1.82-.986.369-.514.554-1.157.554-1.806h-1.333zM11.667 10V8.667c.116 0 .211.034.273.071.058.034.078.064.075.06-.01-.013-.057-.1-.057-.257H9.292c0 .649.186 1.292.553 1.806.366.513.992.986 1.822.986V10zm-1.042-1.46h1.333c0-.157.047-.243.057-.256.003-.004-.017.026-.075.06-.062.036-.157.071-.273.071V5.75c-.83 0-1.456.473-1.822.985-.367.515-.553 1.158-.553 1.806h1.333zm1.042-1.458v1.333c-.117 0-.212-.035-.274-.071-.058-.034-.077-.064-.075-.06.01.013.057.1.057.256h2.666c0-.648-.185-1.29-.553-1.806-.366-.512-.992-.985-1.821-.985v1.333z" fill="#E7E9EA" mask="url(#19-b)"></path><path d="M10 3.333c-6.667 0-3.27 5.601-7.5 7.5 0 1.374 1.17 1.25 1.608 2.308.367.886-.545 2.658-.775 3.525h3.334L10 17.5l3.333-.834h3.334c-.315-1.066-.993-2.38-.771-3.521.227-1.172 1.604-.86 1.604-2.312-4.23-1.899-.833-7.5-7.5-7.5z" fill="none" stroke="#E7E9EA" stroke-width="1.333px"></path></g></svg>